<?xml version="1.0" standalone="no"?>
<!DOCTYPE svg PUBLIC "-//W3C//DTD SVG 20010904//EN"
 "http://www.w3.org/TR/2001/REC-SVG-20010904/DTD/svg10.dtd">
<svg version="1.0" xmlns="http://www.w3.org/2000/svg"
 width="519.000000pt" height="553.000000pt" viewBox="0 0 519.000000 553.000000"
 preserveAspectRatio="xMidYMid meet">
<metadata>
Created by potrace 1.15, written by Peter Selinger 2001-2017
</metadata>
<g transform="translate(0.000000,553.000000) scale(0.100000,-0.100000)"
fill="#FFFFFF" stroke="none">
<path d="M2480 4970 l0 -431 108 3 107 3 3 428 2 427 -110 0 -110 0 0 -430z"/>
<path d="M1355 5063 c-49 -29 -89 -58 -88 -63 2 -7 405 -709 418 -728 4 -5
185 102 185 109 0 8 -409 720 -419 730 -3 3 -46 -18 -96 -48z"/>
<path d="M3517 4760 c-114 -196 -209 -363 -212 -371 -3 -10 24 -30 87 -66 51
-29 93 -51 94 -50 9 9 414 718 416 728 2 7 -38 36 -88 64 l-91 52 -206 -357z"/>
<path d="M2410 4279 c-110 -14 -294 -65 -395 -110 -689 -302 -1025 -1092 -765
-1799 40 -108 77 -181 155 -306 193 -304 324 -637 325 -820 0 -82 15 -157 45
-221 29 -65 120 -162 179 -194 l43 -22 6 -111 c6 -96 11 -119 37 -173 28 -56
108 -143 131 -143 5 0 20 -23 35 -52 133 -263 492 -311 693 -93 22 24 51 66
66 94 14 28 29 51 34 51 24 0 103 87 131 144 27 55 32 77 37 173 l6 109 37 22
c89 51 166 140 200 229 16 42 24 95 30 190 8 115 14 148 50 255 54 162 134
326 265 542 59 98 124 219 145 270 291 696 -21 1512 -703 1836 -241 115 -531
162 -787 129z m435 -214 c208 -56 339 -116 477 -220 226 -170 381 -406 454
-690 25 -99 28 -127 29 -275 0 -290 -49 -448 -234 -753 -39 -64 -99 -174 -135
-244 -126 -253 -182 -431 -195 -623 -8 -129 -26 -177 -83 -225 -66 -56 -59
-55 -573 -55 -514 0 -507 -1 -573 55 -57 48 -74 96 -83 230 -16 249 -115 510
-329 865 -153 253 -196 362 -226 562 -56 378 74 768 345 1038 183 182 401 296
657 345 104 19 382 14 469 -10z m115 -3371 c0 -81 -2 -87 -28 -114 -16 -16
-47 -33 -69 -39 -37 -10 -41 -14 -56 -68 -32 -118 -118 -179 -240 -171 -107 6
-167 58 -204 176 -16 50 -19 53 -60 64 -27 6 -53 22 -68 40 -22 26 -25 39 -25
114 l0 84 375 0 375 0 0 -86z"/>
<path d="M2755 3840 c-3 -5 -12 -7 -19 -4 -7 3 -16 -2 -20 -11 -3 -9 -10 -13
-16 -10 -6 3 -13 -2 -17 -12 -3 -10 -12 -21 -19 -26 -7 -4 -10 -15 -7 -23 3
-9 0 -20 -8 -25 -11 -7 -11 -11 -1 -17 7 -5 10 -16 6 -25 -4 -12 -1 -17 10
-17 9 0 16 -8 16 -20 0 -11 6 -20 14 -20 8 0 17 -8 20 -17 5 -12 10 -13 18 -5
9 9 15 9 25 0 10 -8 17 -8 25 0 8 8 15 9 25 1 9 -8 14 -7 19 5 3 9 12 16 20
16 8 0 14 9 14 20 0 12 7 20 16 20 11 0 14 5 10 17 -4 9 -1 20 6 25 10 6 10
10 -1 17 -8 5 -11 16 -8 25 4 10 1 19 -8 22 -8 4 -15 12 -15 20 0 8 -7 14 -15
14 -8 0 -15 7 -15 16 0 12 -6 15 -25 10 -14 -4 -25 -2 -25 4 0 13 -17 13 -25
0z m69 -72 c25 -35 20 -83 -10 -107 -30 -24 -43 -26 -77 -10 -24 11 -47 47
-47 73 0 7 9 25 21 40 27 35 90 37 113 4z"/>
<path d="M2218 3663 c-9 -2 -21 -18 -27 -35 -9 -26 -15 -30 -41 -26 -42 6 -56
-13 -39 -53 11 -29 11 -33 -9 -50 -33 -26 -29 -58 8 -65 27 -6 30 -10 30 -44
0 -40 23 -61 44 -40 17 17 50 11 64 -10 18 -30 48 -25 61 10 8 26 15 30 44 30
41 0 50 16 34 59 -10 28 -9 33 11 47 30 21 26 56 -8 64 -20 5 -26 13 -28 40
-5 48 -15 55 -53 40 -30 -13 -33 -12 -53 11 -12 14 -29 24 -38 22z"/>
<path d="M2570 3635 c-9 -11 -17 -12 -31 -4 -25 13 -39 4 -39 -27 0 -17 -5
-24 -20 -24 -22 0 -26 -20 -8 -38 9 -9 7 -16 -6 -31 -19 -21 -14 -41 9 -41 7
0 15 -12 17 -27 3 -24 7 -28 31 -25 18 2 27 -2 27 -12 0 -20 30 -29 37 -10 4
10 16 14 37 12 26 -2 32 1 34 20 2 13 10 22 22 22 22 0 33 23 17 39 -8 8 -7
17 2 35 15 27 8 46 -16 46 -10 0 -14 6 -10 20 6 22 -9 36 -36 32 -9 -2 -20 4
-23 12 -8 20 -28 20 -44 1z"/>
<path d="M2860 3594 c-12 -35 -14 -36 -50 -31 -26 3 -43 0 -53 -11 -14 -14
-14 -18 0 -46 15 -30 15 -31 -16 -56 -42 -36 -41 -63 5 -79 35 -13 36 -15 31
-51 -4 -29 0 -43 13 -55 17 -16 21 -16 42 -1 32 23 45 20 63 -15 13 -24 22
-30 42 -27 21 2 29 11 36 37 8 33 9 33 51 29 55 -7 75 16 52 60 -16 31 -12 43
22 61 36 19 29 58 -14 76 -35 14 -36 17 -31 52 8 48 -14 68 -55 47 -33 -17
-52 -11 -66 22 -8 16 -20 24 -36 24 -19 0 -27 -8 -36 -36z"/>
<path d="M3311 3613 c-7 -14 -13 -15 -22 -6 -14 14 -39 6 -39 -13 0 -8 -10
-14 -26 -14 -22 0 -25 -4 -21 -21 4 -15 -1 -22 -19 -29 -25 -10 -31 -24 -14
-35 15 -9 12 -25 -5 -25 -20 0 -19 -26 0 -34 11 -4 14 -13 9 -30 -4 -18 -1
-25 12 -28 12 -2 19 -12 19 -28 0 -20 4 -24 23 -22 14 2 22 -2 22 -12 0 -20
19 -31 33 -17 8 8 16 6 29 -6 14 -12 21 -13 32 -4 9 7 24 10 36 6 16 -5 23 -2
27 14 3 14 12 20 27 18 16 -2 20 3 19 20 -2 14 4 24 18 28 15 5 19 13 16 27
-3 11 0 29 6 39 9 16 9 21 -1 28 -9 5 -11 17 -6 34 5 23 3 27 -15 27 -16 0
-20 6 -18 22 1 17 -4 24 -20 26 -13 2 -23 9 -23 17 0 18 -25 26 -39 12 -9 -9
-15 -8 -22 6 -6 9 -14 17 -19 17 -5 0 -13 -8 -19 -17z m68 -67 c58 -30 69
-119 22 -167 -43 -43 -101 -41 -147 5 -51 51 -43 119 18 156 39 24 69 25 107
6z"/>
<path d="M1853 3318 c-61 -90 -90 -161 -193 -464 -51 -148 -105 -307 -121
-354 -16 -47 -27 -90 -25 -96 3 -7 44 -15 104 -19 171 -12 155 -2 231 -150 71
-139 132 -228 186 -269 37 -29 85 -41 197 -51 43 -4 80 -10 82 -13 2 -4 12
-95 21 -202 9 -107 21 -205 26 -217 l9 -23 360 0 c333 0 361 1 367 17 4 10 -3
127 -15 261 -12 135 -18 250 -14 257 4 7 44 41 89 74 205 155 339 405 346 645
l2 79 -34 11 c-31 11 -60 46 -61 73 0 7 18 22 40 33 33 17 40 26 40 50 0 24
-7 33 -40 50 -45 23 -50 42 -24 92 15 28 14 31 -6 53 -19 21 -29 23 -71 18
-53 -6 -47 -13 -64 71 -8 38 -53 41 -90 5 -38 -36 -51 -36 -87 -2 -24 23 -32
25 -56 17 -23 -8 -28 -16 -32 -54 l-5 -45 -55 -3 c-73 -4 -90 -26 -65 -83 27
-58 17 -71 -39 -51 -38 14 -46 21 -48 46 -2 23 -10 32 -37 41 -50 16 -59 36
-37 81 17 37 17 38 -6 60 -21 22 -26 23 -61 12 -45 -14 -65 0 -76 53 -5 25
-13 34 -36 41 -26 6 -33 3 -58 -27 -16 -19 -33 -35 -39 -35 -6 0 -27 12 -46
26 -28 22 -39 25 -61 18 -22 -8 -26 -16 -29 -57 -2 -26 -8 -47 -14 -47 -6 0
-96 32 -201 70 -105 39 -195 70 -201 70 -6 0 -30 -28 -53 -62z m1407 -173 c66
-34 120 -123 120 -198 0 -39 -27 -100 -42 -94 -7 2 -96 35 -198 72 -102 38
-187 69 -189 71 -2 2 7 24 19 49 51 105 189 152 290 100z m-1222 -199 c14 -13
26 -40 29 -64 5 -37 2 -45 -30 -77 -44 -44 -91 -48 -135 -10 -38 32 -48 72
-28 119 27 66 114 83 164 32z"/>
<path d="M442 4168 c-29 -50 -49 -95 -45 -99 8 -8 723 -419 728 -419 4 0 92
151 100 171 5 13 -69 60 -359 228 -201 116 -367 211 -369 211 -1 0 -26 -41
-55 -92z"/>
<path d="M4307 4051 c-196 -115 -360 -211 -363 -214 -7 -6 94 -187 103 -187 7
0 691 394 717 413 17 13 15 19 -34 105 -29 51 -55 92 -59 91 -3 0 -167 -94
-364 -208z"/>
<path d="M130 2930 l0 -110 420 0 420 0 0 110 0 110 -420 0 -420 0 0 -110z"/>
<path d="M4200 2930 l0 -110 425 0 425 0 0 110 0 110 -425 0 -425 0 0 -110z"/>
<path d="M760 2104 c-195 -113 -359 -209 -363 -213 -6 -6 79 -170 98 -189 5
-5 735 419 735 426 0 13 -97 176 -106 179 -5 1 -169 -90 -364 -203z"/>
<path d="M3990 2219 c-29 -50 -48 -94 -44 -98 10 -9 723 -421 729 -421 1 0 26
41 55 92 50 87 51 92 34 105 -26 19 -709 413 -716 413 -3 0 -29 -41 -58 -91z"/>
</g>
</svg>
